<svg width="800" height="1200" viewBox="0 0 800 1200" fill="none" xmlns="http://www.w3.org/2000/svg">
<g clip-path="url(#clip0_16217_942)">
<rect width="800" height="1200" fill="white"/>
<g clip-path="url(#clip1_16217_942)">
<mask id="mask0_16217_942" style="mask-type:luminance" maskUnits="userSpaceOnUse" x="-93" y="-355" width="1408" height="1995">
<path d="M1315 -355H-93V1640H1315V-355Z" fill="white"/>
</mask>
<g mask="url(#mask0_16217_942)">
<path d="M800 -68.8887H0V1353.33H800V-68.8887Z" fill="#EDE1D8"/>
<path d="M-1.26193 593.73C44.6831 595.46 88.5793 541.265 125.188 467.212C160.083 396.624 173.205 280.271 199.687 187.241C235.54 61.2904 310.04 -18.1196 308.334 -176.182C306.678 -329.674 228.959 -386.313 192.221 -504.555C154.323 -626.528 146.272 -835.135 89.3964 -880.824C32.5793 -926.466 -17.3948 -765.578 -74.0407 -718.446C-129.374 -672.406 -196.211 -710.935 -239.244 -607.378C-283.295 -501.37 -307.765 -329.572 -300.956 -172.385C-294.451 -22.2196 -238.493 68.9115 -204.693 190.264C-178.757 283.379 -160.339 388.554 -125.437 457.775C-88.7919 530.454 -46.9269 592.01 -1.26193 593.73Z" fill="#E6D5C9"/>
<path d="M798.738 2094.28C852.302 2124.3 909.456 2093.52 957.38 2023.01C1007.06 1949.93 1044.24 1829.89 1070.04 1695.14C1096.62 1556.26 1117.64 1399.72 1105.93 1246.96C1094.45 1097.19 1044.28 999.591 1007.7 881.908C970.186 761.261 943.246 606.165 888.657 548.114C832.412 488.302 768.209 514.772 710.81 566.194C654.793 616.376 600.296 700.344 569.182 834.312C539.763 960.985 550.176 1119.64 547.701 1268.49C545.481 1402.1 530.261 1545.38 555.441 1661.04C580.142 1774.5 636.939 1793.48 677.855 1866.34C719.744 1940.93 749.444 2066.65 798.738 2094.28Z" fill="#F4EDE8"/>
</g>
</g>
</g>
<defs>
<clipPath id="clip0_16217_942">
<rect width="800" height="1200" fill="white"/>
</clipPath>
<clipPath id="clip1_16217_942">
<rect width="800" height="1422.22" fill="white" transform="translate(0 -68.8887)"/>
</clipPath>
</defs>
</svg>
