<svg width="250" height="237" viewBox="0 0 250 237" fill="none" xmlns="http://www.w3.org/2000/svg">
<g clip-path="url(#clip0_1803_2551)">
<path d="M110.137 132.451L110.164 132.457C110.968 135.475 112.14 138.512 114.346 140.743C116.542 142.956 119.959 144.193 122.888 143.109L122.969 143.187C129.684 136.013 135.059 127.572 138.691 118.453C140.258 114.515 141.515 110.441 142.406 106.278C122.467 81.7269 99.8879 59.3527 75.1707 39.6246L75.1471 39.6619C70.2748 40.4642 65.5428 42.2072 61.14 44.6502C50.887 50.2694 42.3452 59.6493 37.575 70.0526C30.7673 84.953 29.7091 101.886 31.192 118.544C28.5278 115.668 23.6878 115.357 20.415 117.534C17.1455 119.698 15.534 123.928 16.0609 127.825C16.5911 131.71 19.0464 135.195 22.4743 137.255C17.7177 145.347 14.9155 154.6 14.3708 163.968C14.2321 166.378 14.3104 169.014 15.853 170.849C17.6599 172.952 20.8991 173.282 23.5138 172.365C26.1184 171.43 28.2341 169.512 30.5497 167.657C30.0556 169.993 29.8121 172.42 30.2216 174.764C30.6278 177.123 31.731 179.395 33.5472 180.939C35.3838 182.459 38.0042 183.139 40.2434 182.344C42.6687 181.495 44.2797 179.235 45.9755 177.097C46.0354 181.023 46.9315 185.113 49.4639 188.114C51.993 191.129 56.4592 192.714 60.034 191.057C62.4488 189.96 64.0496 187.684 65.6539 185.509C65.3403 188.565 65.9407 191.82 67.8428 194.233C69.7483 196.633 73.0905 197.996 76.0166 197.041C79.609 195.892 81.4071 191.953 82.7726 188.425L86.2993 179.38C86.9534 177.674 87.7595 175.818 89.3963 175.017C91.1312 174.168 93.2609 174.798 94.8531 175.913C96.4318 177.024 97.6761 178.555 99.2075 179.741C103.887 183.362 111.156 183.04 115.512 179.047C118.199 176.566 119.743 172.607 118.533 169.144C117.476 166.106 114.668 164.1 112.002 162.273C109.759 160.767 107.55 159.241 105.321 157.738C104.61 157.245 103.882 156.762 103.17 156.269C101.117 154.867 98.8777 153.175 98.6 150.705C98.2676 147.934 100.562 145.643 102.475 143.616C105.604 140.282 108.177 136.521 110.137 132.451ZM40.4248 153.605C40.9707 151.987 42.1363 150.651 43.3123 149.448C47.9351 144.731 53.6365 139.318 59.9964 139.82C61.1675 139.909 62.2143 140.673 62.9061 141.65C63.5878 142.61 63.982 143.743 64.3221 144.863C66.1005 150.61 67.111 156.612 66.981 162.633C66.9362 164.376 66.773 166.19 65.8817 167.694C64.9905 169.198 63.1578 170.266 61.4886 169.751C59.7652 169.222 58.896 167.338 58.3115 165.64C56.8023 161.182 55.9054 156.517 55.6617 151.826C54.0191 153.287 52.3764 154.748 50.7338 156.209C49.375 157.396 47.9926 158.62 46.3048 159.221C44.6135 159.836 42.5354 159.694 41.2678 158.43C40.051 157.193 39.8756 155.237 40.4248 153.605Z" fill="#FEF7F2"/>
<path d="M58.3569 27.6113C57.7781 27.5106 57.2265 27.5317 56.6582 27.7356C53.4752 28.857 54.4942 33.7254 56.6977 36.257C58.8707 38.7379 61.8427 41.4748 61.1298 44.6333C65.5326 42.1903 70.2647 40.4473 75.1369 39.645L75.1605 39.6077C70.8066 36.1249 66.3784 32.7099 61.8826 29.3931C60.8357 28.6298 59.5959 27.8329 58.3569 27.6113Z" fill="#222221"/>
<path d="M58.357 27.6113C59.5993 27.8193 60.8358 28.6298 61.9063 29.4133C66.4021 32.7301 70.8338 36.1316 75.1843 39.628C99.888 59.3527 122.48 81.7302 142.419 106.281C145.44 109.979 148.4 113.748 151.282 117.541C152.032 118.518 152.812 119.661 152.979 120.838L152.996 120.828C153.074 111.545 153.598 102.258 154.57 93.0242L154.526 93.0277C136.4 63.4352 110.224 38.8157 79.5724 22.5448L79.5112 22.3283C72.563 24.484 65.4857 26.2913 58.357 27.6113Z" fill="#F4BF42"/>
<path d="M79.501 22.3114L79.5622 22.5279C110.2 38.7955 136.39 63.4183 154.516 93.0108L154.56 93.0073C155.411 85.0092 156.567 77.058 158.085 69.1536C140.866 48.7006 121.789 30.2876 100.891 14.2835C93.8938 17.3327 86.74 20.0267 79.501 22.3114Z" fill="#6197DD"/>
<path d="M43.3259 149.452C42.133 150.665 40.981 152.003 40.4384 153.608C39.8892 155.24 40.0646 157.196 41.2746 158.403C42.5422 159.666 44.6203 159.809 46.3116 159.194C47.9994 158.593 49.3818 157.369 50.7406 156.182C52.3832 154.721 54.0259 153.26 55.6685 151.799C55.9089 156.503 56.8091 161.155 58.3183 165.613C58.8995 167.325 59.772 169.195 61.4953 169.724C63.1646 170.239 65.0006 169.157 65.8885 167.667C66.7798 166.163 66.943 164.349 66.9878 162.606C67.1178 156.585 66.1073 150.583 64.3289 144.836C63.9888 143.716 63.5946 142.583 62.9129 141.623C62.2211 140.646 61.1878 139.886 60.0032 139.793C53.6366 139.318 47.9352 144.731 43.3259 149.452Z" fill="#222221"/>
<path d="M102.488 143.562C100.576 145.589 98.2845 147.866 98.6135 150.651C98.8912 153.121 101.131 154.813 103.184 156.215C103.895 156.708 104.623 157.191 105.335 157.684L105.74 157.094C112.127 153.318 117.911 148.616 122.969 143.187L122.888 143.109C119.959 144.193 116.542 142.956 114.346 140.743C112.14 138.512 110.968 135.475 110.165 132.457L110.137 132.451C108.177 136.521 105.604 140.282 102.488 143.562Z" fill="#222221"/>
<path d="M142.406 106.278C141.518 110.428 140.262 114.501 138.69 118.453C141.273 118.936 143.213 121.316 145.405 122.91C147.813 124.673 152.176 124.938 152.91 122.043C153.011 121.637 153.024 121.237 152.969 120.821C152.798 119.657 152.018 118.515 151.272 117.524C148.373 113.741 145.426 109.976 142.406 106.278Z" fill="#222221"/>
<path d="M160.162 179.717C160.627 178.481 160.916 177.144 161.138 175.847C161.842 171.622 162.12 167.321 161.948 163.037C161.801 159.348 161.298 155.585 159.611 152.305C159.343 151.764 159.034 151.27 158.695 150.784L158.698 150.77C156.925 148.187 154.306 146.171 151.252 145.671C146.093 144.849 141.09 148.609 138.687 153.246C136.271 157.879 135.839 163.264 135.291 168.476C133.735 182.784 130.656 197.317 122.907 209.467L142.509 221.023C145.244 214.356 148.524 207.924 152.292 201.786L152.332 201.681C156.87 203.441 162.082 203.586 166.563 201.695C171.393 199.674 175.218 195.218 176.046 190.032C173.694 189.894 171.348 189.555 169.063 189.031C167.292 188.634 165.525 188.108 164.021 187.102C162.513 186.109 161.276 184.551 161.029 182.765C160.903 181.885 161.02 181.008 161.327 180.179L160.162 179.717Z" fill="#FEF7F2"/>
<path d="M177.671 76.4926C174.914 82.2058 172.787 88.2193 171.354 94.3908C171.122 95.3827 170.962 96.5505 171.677 97.2602C172.134 97.7333 172.855 97.8406 173.512 97.9174C179.161 98.559 184.841 98.7911 190.516 98.5764C193.693 98.4601 196.925 98.1847 199.83 96.908C202.735 95.6313 205.314 93.1808 205.956 90.0765C206.531 87.3006 205.423 84.2361 203.187 82.4728C200.947 80.723 197.721 80.3385 195.148 81.5538C195.59 78.8458 195.972 76.0938 195.383 73.4888C194.794 70.8838 193.037 68.4057 190.494 67.5295C187.785 66.569 184.683 67.5955 182.507 69.4701C180.347 71.3346 178.916 73.9121 177.671 76.4926Z" fill="#EF6565"/>
<path d="M158.698 150.77C159.034 151.27 159.339 151.778 159.611 152.305C161.284 155.582 161.801 159.348 161.948 163.037C162.12 167.321 161.856 171.626 161.138 175.847C160.92 177.13 160.631 178.467 160.162 179.717L161.313 180.175C161.954 178.465 163.41 177.001 165.105 176.2C167.597 175.022 170.474 175.018 173.236 175.244C178.249 175.67 183.208 176.773 187.932 178.536L188.094 178.519C188.077 178.414 188.077 178.299 188.046 178.19C192.262 175.342 196.775 173.731 201.236 172.208C205.684 170.682 210.214 169.177 214.149 166.589C218.085 164.001 221.42 160.128 222.283 155.497C223.146 150.866 220.992 145.529 216.661 143.691C212.171 141.799 207.09 143.901 202.697 146.016C194.618 149.946 186.617 154.026 178.717 158.274C185.296 151.182 191.33 143.91 196.506 136.038C198.421 133.135 200.247 130.066 200.872 126.627C201.517 123.221 200.783 119.344 198.201 117.006C196.097 115.117 193.033 114.485 190.232 114.94C187.433 115.38 184.853 116.795 182.622 118.541C172.102 126.797 168.804 141.635 158.901 150.648L158.698 150.77Z" fill="#FEF7F2"/>
<path d="M176.032 190.029C177.149 190.105 178.276 190.141 179.386 190.129C181.796 190.095 184.405 189.78 186.179 188.136C188.68 185.824 188.512 181.929 188.081 178.515L187.918 178.532C183.195 176.769 178.235 175.667 173.222 175.241C170.46 175.015 167.584 175.019 165.091 176.197C163.41 177.001 161.94 178.462 161.3 180.172C160.993 181.001 160.862 181.875 161.002 182.758C161.249 184.544 162.486 186.103 163.994 187.095C165.501 188.088 167.265 188.627 169.036 189.024C171.334 189.552 173.68 189.89 176.032 190.029Z" fill="#FEF7F2"/>
<path d="M138.694 118.439C141.277 118.923 143.216 121.302 145.408 122.897C147.817 124.66 152.18 124.924 152.913 122.029C153.014 121.623 153.027 121.224 152.972 120.808C152.801 119.644 152.021 118.501 151.275 117.511C148.38 113.714 145.433 109.948 142.412 106.251C122.473 81.6998 99.8946 59.3256 75.1774 39.5975C70.8235 36.1147 66.3952 32.6997 61.8994 29.3829C60.839 28.6162 59.6026 27.8058 58.35 27.5809C57.7712 27.4802 57.2196 27.5013 56.6513 27.7052C53.4683 28.8266 54.4874 33.695 56.6908 36.2266C58.8638 38.7075 61.8358 41.4444 61.123 44.6029" stroke="#222221" stroke-miterlimit="10" stroke-linecap="round" stroke-linejoin="round"/>
<path d="M56.76 27.9047C57.2878 27.8058 57.8122 27.7204 58.3434 27.6079C65.4755 26.2744 72.5495 24.4806 79.4875 22.308C86.7265 20.0233 93.8804 17.3293 100.878 14.2801C121.789 30.2876 140.866 48.7006 158.082 69.1671C156.567 77.058 155.408 85.0227 154.556 93.0209C153.585 102.254 153.06 111.542 152.983 120.825" stroke="#222221" stroke-miterlimit="10" stroke-linecap="round" stroke-linejoin="round"/>
<path d="M154.516 93.0108C136.39 63.4183 110.214 38.7988 79.5622 22.5279" stroke="#222221" stroke-miterlimit="10" stroke-linecap="round" stroke-linejoin="round"/>
<path d="M75.1504 39.6483C70.2782 40.4507 65.5461 42.1937 61.1434 44.6367C50.8904 50.2558 42.3486 59.6358 37.5784 70.039C30.7707 84.9395 29.7124 101.872 31.1954 118.531C28.5311 115.655 23.6911 115.343 20.4183 117.521C17.1489 119.685 15.5374 123.914 16.0642 127.812C16.5945 131.696 19.0498 135.182 22.4777 137.241C17.7211 145.333 14.9188 154.586 14.3741 163.955C14.2355 166.364 14.3138 169 15.8563 170.836C17.6632 172.938 20.9025 173.269 23.5172 172.351C26.1217 171.417 28.2375 169.498 30.5531 167.644C30.059 169.979 29.8155 172.406 30.225 174.751C30.6312 177.109 31.7344 179.382 33.5506 180.926C35.3871 182.446 38.0076 183.126 40.2468 182.331C42.6721 181.481 44.2831 179.221 45.9789 177.083C46.0388 181.009 46.9348 185.099 49.4673 188.101C51.9964 191.116 56.4626 192.7 60.0373 191.043C62.4521 189.947 64.0529 187.67 65.6573 185.495C65.3437 188.552 65.944 191.806 67.8461 194.22C69.7516 196.62 73.0939 197.982 76.0199 197.027C79.6124 195.878 81.4105 191.94 82.7759 188.411L86.3027 179.367C86.9568 177.66 87.7629 175.805 89.3997 175.003C91.1346 174.155 93.2643 174.785 94.8565 175.899C96.4352 177.01 97.6795 178.542 99.2109 179.727C103.89 183.348 111.159 183.026 115.515 179.033C118.202 176.552 119.747 172.594 118.537 169.13C117.48 166.093 114.671 164.087 112.005 162.26C109.762 160.753 107.554 159.227 105.325 157.724C104.613 157.231 103.885 156.748 103.173 156.255C101.121 154.854 98.8811 153.161 98.6033 150.691C98.271 147.92 100.566 145.629 102.478 143.603C105.594 140.322 108.167 136.562 110.127 132.491C112.27 128.15 113.678 123.467 114.297 118.661" stroke="#222221" stroke-miterlimit="10" stroke-linecap="round" stroke-linejoin="round"/>
<path d="M105.743 157.081C112.131 153.305 117.914 148.602 122.973 143.174C129.687 135.999 135.062 127.558 138.694 118.439C140.262 114.501 141.518 110.428 142.409 106.264" stroke="#222221" stroke-miterlimit="10" stroke-linecap="round" stroke-linejoin="round"/>
<path d="M117.9 90.3836C117.409 85.0711 115.797 79.8684 113.198 75.2257" stroke="#222221" stroke-miterlimit="10" stroke-linecap="round" stroke-linejoin="round"/>
<path d="M75.0884 52.8029C70.0771 53.4126 65.3395 55.9881 62.0928 59.8542" stroke="#222221" stroke-miterlimit="10" stroke-linecap="round" stroke-linejoin="round"/>
<path d="M59.9997 139.806C61.1708 139.896 62.2177 140.659 62.9095 141.636C63.5912 142.596 63.9854 143.729 64.3255 144.849C66.1038 150.596 67.1144 156.599 66.9844 162.619C66.9396 164.362 66.7764 166.176 65.8851 167.68C64.9939 169.184 63.1611 170.253 61.4919 169.738C59.7686 169.209 58.8994 167.325 58.3148 165.627C56.8057 161.169 55.9088 156.503 55.6651 151.813C54.0224 153.274 52.3798 154.735 50.7372 156.196C49.3784 157.382 47.996 158.606 46.3081 159.208C44.6169 159.823 42.5387 159.68 41.2712 158.416C40.0646 157.196 39.8891 155.24 40.435 153.622C40.9809 152.003 42.1465 150.668 43.3225 149.465C47.9352 144.731 53.6366 139.318 59.9997 139.806Z" stroke="#222221" stroke-miterlimit="10" stroke-linecap="round" stroke-linejoin="round"/>
<path d="M158.871 150.655C168.773 141.642 172.072 126.804 182.592 118.548C184.826 116.788 187.406 115.373 190.201 114.946C193.016 114.496 196.066 115.124 198.171 117.013C200.753 119.351 201.486 123.228 200.841 126.634C200.207 130.056 198.377 133.138 196.476 136.045C191.303 143.904 185.255 151.172 178.687 158.281C186.586 154.033 194.587 149.953 202.667 146.023C207.06 143.908 212.14 141.806 216.63 143.698C220.962 145.536 223.115 150.873 222.252 155.504C221.389 160.135 218.054 164.008 214.119 166.596C210.197 169.187 205.667 170.693 201.206 172.215C196.744 173.738 192.229 175.362 188.016 178.197C188.033 178.302 188.033 178.417 188.064 178.526C188.495 181.94 188.65 185.831 186.162 188.146C184.401 189.794 181.793 190.109 179.369 190.139C178.246 190.148 177.132 190.115 176.015 190.039C173.663 189.9 171.317 189.562 169.032 189.037C167.262 188.641 165.494 188.115 163.99 187.109C162.483 186.116 161.245 184.558 160.999 182.771C160.872 181.892 160.99 181.015 161.296 180.185C161.937 178.475 163.393 177.011 165.088 176.21C167.58 175.032 170.457 175.028 173.219 175.254C178.232 175.68 183.191 176.783 187.915 178.546" stroke="#222221" stroke-miterlimit="10" stroke-linecap="round" stroke-linejoin="round"/>
<path d="M176.059 189.921C176.063 189.965 176.042 189.988 176.032 190.029C175.207 195.201 171.38 199.671 166.55 201.691C162.068 203.583 156.856 203.438 152.319 201.678C151.936 201.54 151.56 201.375 151.198 201.213C146.406 199.03 142.508 195.1 139.913 190.501" stroke="#222221" stroke-miterlimit="10" stroke-linecap="round" stroke-linejoin="round"/>
<path d="M152.278 201.783C148.511 207.921 145.23 214.352 142.495 221.02L122.894 209.464C130.643 197.313 133.722 182.78 135.278 168.473C135.835 163.277 136.254 157.889 138.674 153.243C141.077 148.606 146.08 144.846 151.239 145.667C154.295 146.154 156.914 148.17 158.685 150.767L158.681 150.78C159.021 151.267 159.326 151.774 159.597 152.302C161.271 155.579 161.787 159.345 161.935 163.033C162.107 167.317 161.842 171.622 161.124 175.844C160.906 177.127 160.617 178.464 160.149 179.713C159.565 181.251 158.714 182.649 157.396 183.616C153.42 186.539 147.351 183.651 145.206 179.207C143.061 174.763 143.679 169.554 144.335 164.656" stroke="#222221" stroke-miterlimit="10" stroke-linecap="round" stroke-linejoin="round"/>
<path d="M195.175 81.5605C197.748 80.3452 200.974 80.7297 203.214 82.4795C205.45 84.2429 206.561 87.2938 205.983 90.0833C205.338 93.2011 202.762 95.638 199.857 96.9147C196.952 98.1914 193.72 98.4668 190.543 98.5831C184.864 98.8113 179.185 98.5793 173.539 97.9242C172.882 97.8473 172.161 97.74 171.704 97.2669C170.985 96.5708 171.149 95.3895 171.381 94.3976C172.814 88.226 174.927 82.2092 177.697 76.4994C178.946 73.9052 180.377 71.3278 182.564 69.4701C184.741 67.5954 187.843 66.5689 190.551 67.5295C193.081 68.4023 194.837 70.8804 195.44 73.4888C196.043 76.0971 195.621 78.839 195.175 81.5605Z" stroke="#222221" stroke-miterlimit="10" stroke-linecap="round" stroke-linejoin="round"/>
<path d="M122.888 143.109C119.959 144.193 116.542 142.956 114.346 140.743C112.14 138.512 110.967 135.475 110.164 132.457" stroke="#222221" stroke-miterlimit="10" stroke-linecap="round" stroke-linejoin="round"/>
<path d="M50.2253 129.292C42.4705 126.377 40.6488 112.137 46.1564 97.4857C51.6641 82.8349 62.4155 73.3212 70.1703 76.2364C77.9251 79.1516 79.7468 93.3918 74.2392 108.043C68.7315 122.694 57.9801 132.207 50.2253 129.292Z" fill="#FEF7F2" stroke="#222221" stroke-miterlimit="10" stroke-linecap="round" stroke-linejoin="round"/>
<path d="M63.5946 82.3402C68.0643 84.0258 69.878 90.7307 68.5358 98.6213L59.8109 100.81C57.8318 101.31 56.9758 103.772 58.2303 105.378L63.3604 111.986C59.2139 118.433 53.6418 121.994 49.3008 120.369C43.6188 118.239 42.2129 107.983 46.1572 97.4896C50.1048 86.9826 57.8991 80.2062 63.5946 82.3402Z" fill="#222221"/>
<path d="M75.0034 139.344C67.2485 136.429 65.4268 122.189 70.9345 107.538C76.4422 92.8869 87.1935 83.3733 94.9484 86.2885C102.703 89.2037 104.525 103.444 99.0172 118.095C93.5096 132.746 82.7582 142.259 75.0034 139.344Z" fill="#FEF7F2" stroke="#222221" stroke-miterlimit="10" stroke-linecap="round" stroke-linejoin="round"/>
<path d="M88.3721 92.3926C92.8418 94.0783 94.6554 100.783 93.3132 108.674L84.5883 110.862C82.6093 111.363 81.7532 113.824 83.0078 115.43L88.1379 122.039C83.9914 128.485 78.4193 132.047 74.0782 130.422C68.3963 128.291 66.9904 118.035 70.9346 107.542C74.8823 97.035 82.6935 90.2485 88.3721 92.3926Z" fill="#222221"/>
</g>
<defs>
<clipPath id="clip0_1803_2551">
<rect width="209" height="192" fill="white" transform="matrix(-0.970494 -0.241123 -0.241123 0.970494 249.129 50.3948)"/>
</clipPath>
</defs>
</svg>
