<svg xmlns="http://www.w3.org/2000/svg" version="1.1" xmlns:xlink="http://www.w3.org/1999/xlink" xmlns:svgjs="http://svgjs.dev/svgjs" width="1440" height="560" preserveAspectRatio="none" viewBox="0 0 1440 560"><g mask="url(&quot;#SvgjsMask1000&quot;)" fill="none"><rect width="1440" height="560" x="0" y="0" fill="rgba(237, 225, 216, 1)"></rect><path d="M0,528.398C101.067,535.246,205.937,507,285.691,444.544C362.487,384.405,395.109,287.092,426.2,194.639C454.638,110.073,475.321,21.631,457.295,-65.749C439.853,-150.298,380.994,-216.024,327.502,-283.783C271.478,-354.749,218.462,-428.815,138.047,-470.146C46.991,-516.946,-54.743,-545.05,-156.346,-532.465C-267.913,-518.646,-382.809,-480.448,-457.454,-396.386C-532.397,-311.988,-561.945,-193.016,-557.929,-80.218C-554.24,23.412,-490.065,110.59,-436.249,199.228C-388.292,278.216,-335.613,351.785,-261.849,407.444C-183.515,466.551,-97.908,521.764,0,528.398" fill="#e6d5c9"></path><path d="M1440 1127.767C1546.407 1131.284 1646.631 1077.769 1731.114 1012.982 1811.208 951.5609999999999 1865.204 865.0830000000001 1904.032 771.9159999999999 1941.866 681.135 1958.892 584.592 1950.487 486.603 1941.714 384.328 1921.453 278.639 1855.007 200.394 1788.285 121.82400000000001 1689.875 67.57 1587.173 58.774 1491.263 50.559000000000026 1411.333 121.452 1320.98 154.65499999999997 1237.975 185.15699999999998 1148.856 193.586 1077.642 246.015 993.8050000000001 307.73699999999997 882.613 375.387 879.805 479.456 876.937 585.726 1013.573 638.172 1064.5430000000001 731.465 1110.188 815.01 1095.5230000000001 925.0260000000001 1160.998 994.136 1233.384 1070.54 1334.808 1124.29 1440 1127.767" fill="#f4ede8"></path></g><defs><mask id="SvgjsMask1000"><rect width="1440" height="560" fill="#ffffff"></rect></mask></defs></svg>