<svg xmlns="http://www.w3.org/2000/svg" version="1.1" xmlns:xlink="http://www.w3.org/1999/xlink" xmlns:svgjs="http://svgjs.dev/svgjs" width="800" height="1200" preserveAspectRatio="none" viewBox="0 0 800 1200"><g mask="url(&quot;#SvgjsMask1092&quot;)" fill="none"><rect width="800" height="1200" x="0" y="0" fill="rgba(237, 225, 216, 1)"></rect><path d="M0,592.696C108.175,563.983,135.249,417.466,229.335,356.852C323.247,296.35,472.013,335.739,538.362,245.862C604.11,156.799,573.091,29.27,551.281,-79.262C530.354,-183.4,496.566,-291.116,416.441,-360.848C339.985,-427.387,229.731,-423.493,130.739,-445.255C39.218,-465.375,-49.701,-499.784,-142.002,-483.616C-240.797,-466.311,-353.825,-437.32,-405.46,-351.333C-456.989,-265.523,-379.247,-155.542,-398.045,-57.23C-418.315,48.777,-532.049,129.508,-517.86,236.499C-503.088,347.887,-416.244,439.958,-323.666,503.635C-229.565,568.36,-110.39,621.997,0,592.696" fill="#e6d5c9"></path><path d="M800 1527.376C872.436 1538.117 946.237 1559.595 1015.109 1534.716 1091.745 1507.032 1169.251 1458.144 1200.251 1382.788 1231.064 1307.888 1183.064 1226.671 1174.987 1146.085 1166.4470000000001 1060.88 1200.411 965.727 1151.412 895.499 1101.774 824.355 1007.1610000000001 801.3620000000001 922.211 783.789 842.059 767.2080000000001 754.485 760.236 682.083 798.4100000000001 613.764 834.431 598.296 923.028 547.605 981.298 496.77 1039.733 406.128 1065.864 384.672 1140.285 362.849 1215.979 391.245 1301.578 436.718 1365.905 479.146 1425.925 555.158 1446.616 622.3240000000001 1476.47 679.7860000000001 1502.01 737.798 1518.152 800 1527.376" fill="#f4ede8"></path></g><defs><mask id="SvgjsMask1092"><rect width="800" height="1200" fill="#ffffff"></rect></mask></defs></svg>