<svg xmlns="http://www.w3.org/2000/svg" version="1.1" xmlns:xlink="http://www.w3.org/1999/xlink" xmlns:svgjs="http://svgjs.dev/svgjs" width="1920" height="1280" preserveAspectRatio="none" viewBox="0 0 1920 1280"><g mask="url(&quot;#SvgjsMask1058&quot;)" fill="none"><rect width="1920" height="1280" x="0" y="0" fill="rgba(237, 225, 216, 1)"></rect><path d="M0,586.089C110.268,587.646,215.619,538.87,303.479,472.222C387.227,408.693,418.721,303.976,482.277,220.249C568.324,106.893,747.125,35.424,743.031,-106.832C739.055,-244.975,552.531,-295.95,464.358,-402.368C373.403,-512.144,354.082,-699.89,217.58,-741.01C81.219,-782.088,-38.719,-637.289,-174.669,-594.87C-307.47,-553.434,-467.877,-588.11,-571.156,-494.909C-676.88,-399.501,-735.607,-244.883,-719.266,-103.415C-703.655,31.734,-569.355,113.752,-488.234,222.969C-425.988,306.773,-381.786,401.43,-298.021,463.729C-210.072,529.14,-109.596,584.541,0,586.089" fill="#e6d5c9"></path><path d="M1920 1936.585C2048.553 1963.606 2185.723 1935.9009999999998 2300.741 1872.444 2419.965 1806.6660000000002 2509.207 1698.633 2571.114 1577.354 2634.913 1452.369 2685.37 1311.481 2657.266 1173.997 2629.7110000000002 1039.202 2509.311 951.364 2421.499 845.4490000000001 2331.476 736.867 2266.819 597.28 2135.805 545.034 2000.818 491.20399999999995 1846.73 515.027 1708.972 561.306 1574.532 606.47 1443.74 682.041 1369.066 802.613 1298.4589999999998 916.6179999999999 1323.45 1059.408 1317.512 1193.375 1312.182 1313.62 1275.655 1442.571 1336.086 1546.664 1395.37 1648.783 1531.682 1665.862 1629.88 1731.436 1730.415 1798.571 1801.695 1911.719 1920 1936.585" fill="#f4ede8"></path></g><defs><mask id="SvgjsMask1058"><rect width="1920" height="1280" fill="#ffffff"></rect></mask></defs></svg>